<?xml version="1.0" encoding="utf-8"?>
<!-- Generator: Adobe Illustrator 16.0.0, SVG Export Plug-In . SVG Version: 6.00 Build 0)  -->
<!DOCTYPE svg PUBLIC "-//W3C//DTD SVG 1.1//EN" "http://www.w3.org/Graphics/SVG/1.1/DTD/svg11.dtd">
<svg version="1.1" id="Layer_1" xmlns="http://www.w3.org/2000/svg" xmlns:xlink="http://www.w3.org/1999/xlink" x="0px" y="0px"
	 width="232.872px" height="55.84px" viewBox="0 0 232.872 55.84" enable-background="new 0 0 232.872 55.84" xml:space="preserve">
<g>
	<g>
		<g>
			<g>
				<g>
					<g>
						<defs>
							<path id="SVGID_1_" d="M1.75-3v55.84h41.88V-3H1.75z M22.83,37.951c-5.892,0-10.667-4.773-10.667-10.668
								c0-5.892,4.775-10.667,10.667-10.667c5.891,0,10.668,4.775,10.668,10.667C33.498,33.178,28.721,37.951,22.83,37.951z"/>
						</defs>
						<clipPath id="SVGID_2_">
							<use xlink:href="#SVGID_1_"  overflow="visible"/>
						</clipPath>
						<g clip-path="url(#SVGID_2_)">
							<g>
								<g>
									<g>
										<rect x="18.867" y="19.133" fill="#DCE0DF" width="3.438" height="1.223"/>
										<rect x="18.867" y="17.628" fill="#DCE0DF" width="3.438" height="1.222"/>
										<rect x="18.867" y="14.614" fill="#DCE0DF" width="3.438" height="1.223"/>
										<rect x="18.867" y="16.121" fill="#DCE0DF" width="3.438" height="1.222"/>
										<rect x="18.867" y="13.108" fill="#DCE0DF" width="3.438" height="1.223"/>
										<rect x="18.867" y="11.602" fill="#606261" width="3.438" height="1.223"/>
										<rect x="18.867" y="8.589" fill="#606261" width="3.438" height="1.224"/>
										<rect x="18.867" y="10.096" fill="#606261" width="3.438" height="1.223"/>
									</g>
									<g>
										<rect x="23.118" y="19.133" fill="#DCE0DF" width="3.44" height="1.223"/>
										<rect x="23.118" y="17.628" fill="#DCE0DF" width="3.44" height="1.222"/>
										<rect x="23.118" y="14.614" fill="#DCE0DF" width="3.44" height="1.223"/>
										<rect x="23.118" y="16.121" fill="#DCE0DF" width="3.44" height="1.222"/>
										<rect x="23.118" y="13.108" fill="#DCE0DF" width="3.44" height="1.223"/>
										<rect x="23.118" y="11.602" fill="#606261" width="3.44" height="1.223"/>
									</g>
									<g>
										<rect x="27.374" y="19.133" fill="#DCE0DF" width="3.438" height="1.223"/>
										<rect x="27.374" y="17.628" fill="#DCE0DF" width="3.438" height="1.222"/>
										<rect x="27.374" y="16.121" fill="#DCE0DF" width="3.438" height="1.222"/>
									</g>
									<g>
										<rect x="14.614" y="19.133" fill="#DCE0DF" width="3.438" height="1.223"/>
										<rect x="14.614" y="17.628" fill="#DCE0DF" width="3.438" height="1.222"/>
										<rect x="14.614" y="14.614" fill="#DCE0DF" width="3.438" height="1.223"/>
										<rect x="14.614" y="16.121" fill="#DCE0DF" width="3.438" height="1.222"/>
									</g>
								</g>
								<g>
									<g>
										
											<rect x="15.772" y="31.954" transform="matrix(0.5002 0.8659 -0.8659 0.5002 36.9406 1.1291)" fill="#DCE0DF" width="3.44" height="1.224"/>
										
											<rect x="14.469" y="32.708" transform="matrix(0.4999 0.8661 -0.8661 0.4999 36.9511 2.6417)" fill="#DCE0DF" width="3.438" height="1.221"/>
										
											<rect x="11.861" y="34.213" transform="matrix(0.4996 0.8663 -0.8663 0.4996 36.9617 5.6617)" fill="#DCE0DF" width="3.438" height="1.221"/>
										
											<rect x="13.162" y="33.461" transform="matrix(0.4998 0.8661 -0.8661 0.4998 36.9547 4.1528)" fill="#DCE0DF" width="3.439" height="1.222"/>
										
											<rect x="10.555" y="34.967" transform="matrix(0.4996 0.8663 -0.8663 0.4996 36.9618 7.1714)" fill="#DCE0DF" width="3.438" height="1.223"/>
										
											<rect x="9.249" y="35.719" transform="matrix(0.5001 0.866 -0.866 0.5001 36.9447 8.6629)" fill="#606261" width="3.441" height="1.223"/>
										
											<rect x="6.643" y="37.221" transform="matrix(0.4998 0.8662 -0.8662 0.4998 36.9531 11.6808)" fill="#606261" width="3.441" height="1.223"/>
										
											<rect x="7.945" y="36.474" transform="matrix(0.5003 0.8659 -0.8659 0.5003 36.94 10.165)" fill="#606261" width="3.437" height="1.222"/>
									</g>
									<g>
										
											<rect x="13.648" y="28.272" transform="matrix(0.5002 0.8659 -0.8659 0.5002 32.6921 1.1309)" fill="#DCE0DF" width="3.437" height="1.223"/>
										
											<rect x="12.343" y="29.027" transform="matrix(0.5002 0.8659 -0.8659 0.5002 32.6931 2.638)" fill="#DCE0DF" width="3.437" height="1.222"/>
										
											<rect x="9.732" y="30.528" transform="matrix(0.5005 0.8658 -0.8658 0.5005 32.6782 5.6411)" fill="#DCE0DF" width="3.438" height="1.222"/>
										
											<rect x="11.038" y="29.779" transform="matrix(0.5001 0.866 -0.866 0.5001 32.694 4.1443)" fill="#DCE0DF" width="3.44" height="1.224"/>
										
											<rect x="8.428" y="31.281" transform="matrix(0.5003 0.8659 -0.8659 0.5003 32.6845 7.1519)" fill="#DCE0DF" width="3.437" height="1.222"/>
										
											<rect x="7.125" y="32.035" transform="matrix(0.5004 0.8658 -0.8658 0.5004 32.6847 8.6544)" fill="#606261" width="3.438" height="1.223"/>
									</g>
									<g>
										
											<rect x="11.519" y="24.586" transform="matrix(0.5001 0.866 -0.866 0.5001 28.4391 1.1333)" fill="#DCE0DF" width="3.437" height="1.222"/>
										
											<rect x="10.215" y="25.341" transform="matrix(0.4999 0.8661 -0.8661 0.4999 28.444 2.6421)" fill="#DCE0DF" width="3.438" height="1.222"/>
										
											<rect x="8.91" y="26.097" transform="matrix(0.5001 0.8659 -0.8659 0.5001 28.4405 4.1459)" fill="#DCE0DF" width="3.438" height="1.221"/>
									</g>
									<g>
										
											<rect x="17.9" y="35.639" transform="matrix(0.5 0.866 -0.866 0.5 41.2012 1.1332)" fill="#DCE0DF" width="3.438" height="1.222"/>
										
											<rect x="16.596" y="36.388" transform="matrix(0.5002 0.8659 -0.8659 0.5002 41.1931 2.6346)" fill="#DCE0DF" width="3.437" height="1.222"/>
										
											<rect x="13.984" y="37.896" transform="matrix(0.4999 0.8661 -0.8661 0.4999 41.2036 5.6563)" fill="#DCE0DF" width="3.439" height="1.222"/>
										
											<rect x="15.289" y="37.143" transform="matrix(0.5003 0.8659 -0.8659 0.5003 41.1891 4.1406)" fill="#DCE0DF" width="3.437" height="1.222"/>
									</g>
								</g>
								<g>
									<g>
										
											<rect x="26.173" y="31.957" transform="matrix(-0.5003 0.8659 -0.8659 -0.5003 70.0439 24.712)" fill="#DCE0DF" width="3.437" height="1.223"/>
										
											<rect x="27.473" y="32.708" transform="matrix(-0.4997 0.8662 -0.8662 -0.4997 72.6415 24.6813)" fill="#DCE0DF" width="3.44" height="1.222"/>
										
											<rect x="30.082" y="34.214" transform="matrix(-0.4998 0.8661 -0.8661 -0.4998 77.8587 24.6869)" fill="#DCE0DF" width="3.439" height="1.223"/>
										
											<rect x="28.779" y="33.458" transform="matrix(-0.4999 0.8661 -0.8661 -0.4999 75.2517 24.6859)" fill="#DCE0DF" width="3.439" height="1.222"/>
										
											<rect x="31.392" y="34.964" transform="matrix(-0.5005 0.8658 -0.8658 -0.5005 80.4821 24.7145)" fill="#DCE0DF" width="3.438" height="1.224"/>
										
											<rect x="32.691" y="35.72" transform="matrix(-0.4998 0.8661 -0.8661 -0.4998 83.0765 24.6844)" fill="#606261" width="3.439" height="1.222"/>
										
											<rect x="35.301" y="37.225" transform="matrix(-0.4998 0.8662 -0.8662 -0.4998 88.2972 24.6799)" fill="#606261" width="3.441" height="1.223"/>
										
											<rect x="33.994" y="36.474" transform="matrix(-0.5002 0.8659 -0.8659 -0.5002 85.6881 24.7082)" fill="#606261" width="3.437" height="1.223"/>
									</g>
									<g>
										
											<rect x="28.296" y="28.272" transform="matrix(-0.5007 0.8656 -0.8656 -0.5007 70.0457 17.3624)" fill="#DCE0DF" width="3.439" height="1.222"/>
										
											<rect x="29.598" y="29.024" transform="matrix(-0.5 0.866 -0.866 -0.5 72.6405 17.3319)" fill="#DCE0DF" width="3.438" height="1.223"/>
										
											<rect x="32.21" y="30.529" transform="matrix(-0.5001 0.866 -0.866 -0.5001 77.8607 17.3274)" fill="#DCE0DF" width="3.437" height="1.22"/>
										
											<rect x="30.909" y="29.775" transform="matrix(-0.5005 0.8658 -0.8658 -0.5005 75.2651 17.3467)" fill="#DCE0DF" width="3.438" height="1.224"/>
										
											<rect x="33.512" y="31.283" transform="matrix(-0.5 0.866 -0.866 -0.5 80.4697 17.3319)" fill="#DCE0DF" width="3.439" height="1.223"/>
										
											<rect x="34.824" y="32.04" transform="matrix(-0.5003 0.8659 -0.8659 -0.5003 83.0964 17.3439)" fill="#606261" width="3.438" height="1.223"/>
									</g>
									<g>
										
											<rect x="30.427" y="24.588" transform="matrix(-0.5004 0.8658 -0.8658 -0.5004 70.0489 9.9761)" fill="#DCE0DF" width="3.438" height="1.223"/>
										
											<rect x="31.727" y="25.341" transform="matrix(-0.4995 0.8663 -0.8663 -0.4995 72.6341 9.9406)" fill="#DCE0DF" width="3.437" height="1.221"/>
										
											<rect x="33.032" y="26.09" transform="matrix(-0.4999 0.8661 -0.8661 -0.4999 75.2491 9.9506)" fill="#DCE0DF" width="3.439" height="1.22"/>
									</g>
									<g>
										
											<rect x="24.04" y="35.64" transform="matrix(-0.4998 0.8661 -0.8661 -0.4998 70.0322 32.0573)" fill="#DCE0DF" width="3.439" height="1.222"/>
										
											<rect x="25.348" y="36.392" transform="matrix(-0.5003 0.8659 -0.8659 -0.5003 72.6467 32.0789)" fill="#DCE0DF" width="3.437" height="1.222"/>
										
											<rect x="27.956" y="37.897" transform="matrix(-0.4998 0.8661 -0.8661 -0.4998 77.8602 32.0513)" fill="#DCE0DF" width="3.439" height="1.222"/>
										
											<rect x="26.655" y="37.142" transform="matrix(-0.5002 0.8659 -0.8659 -0.5002 75.2571 32.0653)" fill="#DCE0DF" width="3.437" height="1.222"/>
									</g>
								</g>
								<line fill="none" x1="24.286" y1="37.836" x2="21.375" y2="37.836"/>
							</g>
						</g>
					</g>
				</g>
			</g>
		</g>
	</g>
	<g enable-background="new    ">
		<path fill="#FFFFFF" d="M55.242,23.636h-1.465c0-1.054-0.176-1.722-0.527-2.007c-0.352-0.284-1.178-0.427-2.48-0.427
			c-1.545,0-2.542,0.136-2.988,0.408c-0.447,0.271-0.67,0.877-0.67,1.814c0,1.054,0.176,1.696,0.527,1.926s1.395,0.386,3.132,0.47
			c2.036,0.089,3.331,0.349,3.883,0.775c0.552,0.429,0.829,1.386,0.829,2.873c0,1.609-0.318,2.649-0.953,3.122
			c-0.635,0.475-2.039,0.709-4.209,0.709c-1.884,0-3.137-0.236-3.759-0.713c-0.623-0.477-0.934-1.436-0.934-2.879l-0.01-0.584h1.465
			v0.326c0,1.168,0.179,1.895,0.536,2.179c0.358,0.284,1.274,0.427,2.749,0.427c1.692,0,2.732-0.143,3.122-0.427
			c0.39-0.284,0.584-1.043,0.584-2.274c0-0.799-0.132-1.33-0.397-1.595c-0.265-0.266-0.819-0.423-1.662-0.475l-1.533-0.076
			l-1.456-0.077c-2.216-0.152-3.323-1.303-3.323-3.447c0-1.488,0.322-2.481,0.967-2.979s1.931-0.747,3.86-0.747
			c1.954,0,3.227,0.231,3.821,0.694C54.945,21.115,55.242,22.11,55.242,23.636z"/>
		<path fill="#FFFFFF" d="M58.728,20.092v13.073h-1.475V20.092H58.728z"/>
		<path fill="#FFFFFF" d="M62.722,20.092v11.703h6.723v1.37h-8.198V20.092H62.722z"/>
		<path fill="#FFFFFF" d="M71.706,21.336v4.455h6.637v1.244h-6.637v4.885h6.924v1.245h-8.399V20.092h8.399v1.245L71.706,21.336
			L71.706,21.336z"/>
		<path fill="#FFFFFF" d="M91.693,20.092v13.073H89.27l-5.478-8.897l-0.891-1.465l-0.44-0.729l-0.44-0.728h-0.038l0.009,0.489
			l0.01,0.498v0.977v9.855h-1.475V20.092h2.414l4.779,7.796l1.245,2.049l0.623,1.016l0.613,1.023h0.039l-0.01-0.487l-0.01-0.498
			v-0.978v-9.923L91.693,20.092L91.693,20.092z"/>
		<path fill="#FFFFFF" d="M98.742,21.461v11.704h-1.475V21.461h-4.262v-1.37h9.96v1.37H98.742z"/>
		<path fill="#FFFFFF" d="M109.182,33.165V20.092h6.053c1.87,0,3.139,0.412,3.803,1.235c0.664,0.824,0.996,2.401,0.996,4.731
			c0,2.834-0.296,4.728-0.888,5.678c-0.589,0.953-1.771,1.429-3.537,1.429H109.182z M110.656,31.92h4.263
			c1.562,0,2.574-0.312,3.026-0.938c0.453-0.627,0.681-2.021,0.681-4.188c0-2.375-0.195-3.878-0.59-4.51
			c-0.394-0.633-1.332-0.949-2.821-0.949h-4.559V31.92z"/>
		<path fill="#FFFFFF" d="M123.47,20.092v13.073h-1.474V20.092H123.47z"/>
		<path fill="#FFFFFF" d="M134.954,23.636h-1.465c0-1.054-0.176-1.722-0.527-2.007c-0.352-0.284-1.178-0.427-2.479-0.427
			c-1.545,0-2.541,0.136-2.986,0.408c-0.447,0.271-0.67,0.877-0.67,1.814c0,1.054,0.176,1.696,0.523,1.926
			c0.354,0.229,1.396,0.386,3.133,0.47c2.037,0.089,3.331,0.349,3.885,0.775c0.553,0.429,0.827,1.386,0.827,2.873
			c0,1.609-0.315,2.649-0.952,3.122c-0.636,0.475-2.039,0.709-4.209,0.709c-1.885,0-3.139-0.236-3.76-0.713
			c-0.622-0.477-0.936-1.436-0.936-2.879l-0.01-0.584h1.465v0.326c0,1.168,0.182,1.895,0.537,2.179
			c0.357,0.284,1.273,0.427,2.748,0.427c1.691,0,2.732-0.143,3.123-0.427s0.584-1.043,0.584-2.274c0-0.799-0.134-1.33-0.396-1.595
			c-0.267-0.266-0.819-0.423-1.663-0.475l-1.531-0.076l-1.453-0.077c-2.219-0.152-3.324-1.303-3.324-3.447
			c0-1.488,0.32-2.481,0.967-2.979s1.933-0.747,3.861-0.747c1.95,0,3.227,0.231,3.817,0.694
			C134.657,21.115,134.954,22.11,134.954,23.636z"/>
		<path fill="#FFFFFF" d="M145.536,28.798h1.467v0.498c0,1.781-0.303,2.894-0.91,3.338c-0.606,0.443-2.133,0.665-4.576,0.665
			c-2.189,0-3.583-0.392-4.178-1.174c-0.594-0.781-0.891-2.622-0.891-5.521c0-2.267,0.067-3.692,0.201-4.276
			c0.135-0.584,0.518-1.106,1.148-1.566c0.74-0.536,2.341-0.804,4.799-0.804c1.667,0,2.787,0.258,3.365,0.775
			s0.867,1.517,0.867,2.998l0.01,0.355h-1.465l-0.011-0.402c0-1.054-0.172-1.73-0.514-2.031c-0.343-0.3-1.112-0.45-2.312-0.45
			c-2.105,0-3.396,0.176-3.858,0.527c-0.468,0.352-0.699,1.325-0.699,2.921c0,3.671,0.156,5.824,0.47,6.455
			c0.312,0.633,1.383,0.949,3.209,0.949c1.734,0,2.819-0.139,3.25-0.412c0.432-0.273,0.646-0.965,0.646-2.067L145.536,28.798z"/>
		<path fill="#FFFFFF" d="M153.447,19.958c2.472,0,4.017,0.36,4.636,1.082c0.619,0.721,0.931,2.525,0.931,5.411
			c0,3.109-0.298,5.027-0.892,5.756c-0.595,0.729-2.15,1.092-4.675,1.092c-2.509,0-4.065-0.359-4.669-1.082
			c-0.604-0.722-0.904-2.586-0.904-5.593v-0.92l0.021-1.235c0-1.736,0.394-2.923,1.173-3.558
			C149.848,20.276,151.309,19.958,153.447,19.958z M153.438,21.202c-2.068,0-3.279,0.231-3.63,0.69
			c-0.351,0.46-0.527,2.038-0.527,4.732c0,2.7,0.177,4.28,0.527,4.74c0.351,0.459,1.562,0.69,3.63,0.69
			c2.075,0,3.288-0.231,3.641-0.69c0.353-0.46,0.525-2.04,0.525-4.74v-0.853l-0.009-1.235c0-1.443-0.243-2.359-0.729-2.75
			C156.381,21.397,155.238,21.202,153.438,21.202z"/>
		<path fill="#FFFFFF" d="M174.564,23.636H173.1c0-1.054-0.176-1.722-0.525-2.007c-0.353-0.284-1.18-0.427-2.481-0.427
			c-1.544,0-2.54,0.136-2.985,0.408c-0.445,0.271-0.671,0.877-0.671,1.814c0,1.054,0.175,1.696,0.524,1.926
			c0.353,0.23,1.396,0.386,3.131,0.47c2.037,0.089,3.332,0.349,3.887,0.775c0.552,0.429,0.828,1.386,0.828,2.873
			c0,1.609-0.316,2.649-0.953,3.122c-0.637,0.475-2.038,0.709-4.208,0.709c-1.884,0-3.14-0.236-3.76-0.713
			c-0.623-0.477-0.937-1.436-0.937-2.879l-0.009-0.584h1.466v0.326c0,1.168,0.178,1.895,0.535,2.179s1.273,0.427,2.748,0.427
			c1.693,0,2.732-0.143,3.124-0.427c0.39-0.284,0.583-1.043,0.583-2.274c0-0.799-0.133-1.33-0.396-1.595
			c-0.267-0.266-0.817-0.423-1.662-0.475l-1.53-0.076l-1.456-0.077c-2.216-0.152-3.323-1.303-3.323-3.447
			c0-1.488,0.322-2.481,0.968-2.979s1.933-0.747,3.859-0.747c1.954,0,3.229,0.231,3.82,0.694
			C174.268,21.115,174.564,22.11,174.564,23.636z"/>
		<path fill="#FFFFFF" d="M187.993,31.564l-0.604,1.006l-1.169-0.756c-0.701,0.987-2.321,1.482-4.855,1.482
			c-2.586,0-4.161-0.365-4.726-1.097s-0.848-2.769-0.848-6.105c0-2.669,0.319-4.359,0.967-5.071
			c0.645-0.712,2.181-1.067,4.604-1.067c2.474,0,4.017,0.36,4.638,1.082c0.619,0.721,0.929,2.525,0.929,5.411
			c0,2.164-0.08,3.582-0.239,4.252L187.993,31.564z M181.136,28.48l0.679-1.004l3.573,2.365c0.089-0.467,0.134-1.29,0.134-2.472
			c0-3.153-0.161-4.97-0.484-5.449c-0.32-0.479-1.549-0.719-3.682-0.719c-2.068,0-3.277,0.231-3.629,0.69
			c-0.352,0.46-0.527,2.038-0.527,4.732c0,2.7,0.176,4.279,0.527,4.74c0.352,0.459,1.555,0.688,3.609,0.688
			c2.043,0,3.283-0.336,3.717-1.006L181.136,28.48z"/>
		<path fill="#FFFFFF" d="M198.316,20.092h1.476v9.156c0,1.66-0.332,2.75-1,3.271c-0.668,0.521-2.066,0.778-4.199,0.778
			c-2,0-3.355-0.251-4.075-0.752c-0.718-0.501-1.077-1.454-1.077-2.858v-0.438v-9.156h1.477v9.156c0,1.237,0.201,2.017,0.604,2.332
			c0.4,0.315,1.393,0.476,2.969,0.476c1.711,0,2.777-0.156,3.198-0.467c0.422-0.309,0.632-1.09,0.632-2.341v-9.157H198.316z"/>
		<path fill="#FFFFFF" d="M210.308,30.396h-6.618l-1.005,2.769h-1.562l4.789-13.073h2.066l4.884,13.073h-1.542L210.308,30.396z
			 M209.877,29.285l-2.902-7.986l-2.862,7.986H209.877z"/>
		<path fill="#FFFFFF" d="M214.206,33.165V20.092h6.053c1.871,0,3.14,0.412,3.803,1.235c0.665,0.824,0.997,2.401,0.997,4.731
			c0,2.834-0.296,4.728-0.888,5.678c-0.592,0.953-1.771,1.429-3.539,1.429H214.206z M215.68,31.92h4.263
			c1.563,0,2.572-0.312,3.026-0.938c0.453-0.627,0.68-2.021,0.68-4.188c0-2.375-0.195-3.878-0.589-4.51
			c-0.394-0.633-1.333-0.949-2.82-0.949h-4.56V31.92L215.68,31.92z"/>
	</g>
</g>
</svg>
