<?xml version="1.0" encoding="utf-8"?>
<!-- Generator: Adobe Illustrator 16.0.0, SVG Export Plug-In . SVG Version: 6.00 Build 0)  -->
<!DOCTYPE svg PUBLIC "-//W3C//DTD SVG 1.1//EN" "http://www.w3.org/Graphics/SVG/1.1/DTD/svg11.dtd">
<svg version="1.1" id="Layer_1" xmlns="http://www.w3.org/2000/svg" xmlns:xlink="http://www.w3.org/1999/xlink" x="0px" y="0px"
	 width="36.506px" height="22.25px" viewBox="0 0 36.506 22.25" enable-background="new 0 0 36.506 22.25" xml:space="preserve">
<g>
	<path id="u_2_" fill="#EAEAEA" d="M13.922,15.03h-1.297v-0.75c-0.49,0.562-0.905,0.848-1.36,0.848
		c-0.398,0-0.675-0.188-0.813-0.528c-0.084-0.206-0.143-0.529-0.143-1.001V8.143h1.294v5.115c0,0.289,0,0.409,0,0.477
		c0.031,0.192,0.112,0.261,0.276,0.261c0.247,0,0.474-0.215,0.746-0.602V8.143h1.297V15.03z"/>
	<path id="o_2_" fill="#EAEAEA" d="M9.354,10.393c0-0.736-0.148-1.289-0.409-1.637C8.598,8.285,8.058,8.092,7.511,8.092
		c-0.617,0-1.087,0.193-1.432,0.664c-0.266,0.348-0.408,0.907-0.408,1.643L5.67,12.848c0,0.732,0.125,1.237,0.392,1.582
		c0.346,0.47,0.904,0.718,1.449,0.718c0.547,0,1.114-0.249,1.459-0.718c0.262-0.345,0.384-0.85,0.384-1.582V10.393z M8.058,12.984
		c0.066,0.683-0.146,1.021-0.547,1.021c-0.402,0-0.614-0.338-0.545-1.021v-2.728C6.896,9.575,7.108,9.254,7.511,9.254
		c0.401,0,0.614,0.32,0.547,1.002V12.984z"/>
	<path id="y_2_" fill="#EAEAEA" d="M4.236,11.28v3.75H2.872v-3.75c0,0-1.411-4.599-1.704-5.456h1.433l0.957,3.592l0.951-3.592h1.434
		L4.236,11.28z"/>
	<g>
		<path fill="#EAEAEA" d="M27.249,9.238c-0.202,0-0.436,0.107-0.642,0.312l-0.002,4.136c0.206,0.207,0.441,0.311,0.644,0.311
			c0.356,0,0.517-0.261,0.517-0.943V10.12C27.766,9.438,27.605,9.238,27.249,9.238z"/>
		<path fill="#EAEAEA" d="M32.336,10.058c0-0.63-0.163-0.82-0.572-0.82c-0.413,0-0.587,0.174-0.587,0.812v0.753l1.159,0V10.058z"/>
		<path fill="#EAEAEA" d="M35.135,6.567c0,0-0.199-1.397-0.81-2.012c-0.774-0.808-1.643-0.812-2.04-0.859
			c-2.851-0.205-7.125-0.205-7.125-0.205h-0.01c0,0-4.273,0-7.124,0.205c-0.398,0.047-1.266,0.051-2.04,0.859
			c-0.609,0.615-0.81,2.012-0.81,2.012s-0.204,1.641-0.204,3.281v1.539c0,1.641,0.204,3.281,0.204,3.281s0.2,1.396,0.81,2.012
			c0.774,0.808,1.792,0.782,2.245,0.867c1.629,0.155,6.924,0.204,6.924,0.204s4.279-0.006,7.13-0.212
			c0.397-0.047,1.266-0.051,2.04-0.859c0.61-0.615,0.81-2.012,0.81-2.012s0.203-1.641,0.203-3.281V9.848
			C35.338,8.208,35.135,6.567,35.135,6.567z M19.445,15.03h-1.362V7.188h-1.434V5.893l4.297-0.001v1.296h-1.501V15.03z
			 M24.356,15.03h-1.296v-0.75c-0.491,0.562-0.907,0.848-1.361,0.848c-0.397,0-0.675-0.188-0.813-0.528
			c-0.084-0.206-0.145-0.529-0.145-1.001V8.21h1.297v5.047c0,0.289,0,0.409,0,0.477c0.03,0.192,0.11,0.261,0.275,0.261
			c0.247,0,0.473-0.215,0.747-0.602V8.21h1.296V15.03z M29.062,12.984c0,0.631-0.053,1.076-0.136,1.365
			c-0.164,0.506-0.523,0.771-1.016,0.771c-0.438,0-0.889-0.265-1.302-0.775l-0.001,0.687H25.38V5.892h1.228l-0.002,2.979
			c0.399-0.491,0.851-0.77,1.305-0.77c0.492,0,0.821,0.284,0.986,0.794c0.083,0.274,0.165,0.715,0.165,1.361V12.984z M31.775,13.996
			c0.304,0,0.48-0.165,0.552-0.495c0.01-0.067,0.009-0.363,0.009-0.857h1.296v0.193c0,0.397-0.033,0.679-0.044,0.803
			c-0.042,0.274-0.141,0.521-0.289,0.74c-0.341,0.495-0.848,0.74-1.493,0.74c-0.646,0-1.137-0.233-1.495-0.699
			c-0.262-0.34-0.431-0.848-0.431-1.572v-2.387c0-0.729,0.154-1.291,0.417-1.636c0.356-0.467,0.848-0.713,1.479-0.713
			c0.619,0,1.11,0.247,1.456,0.713c0.259,0.345,0.402,0.877,0.402,1.606l0.001,1.394h-2.458v1.225
			C31.173,13.679,31.351,13.996,31.775,13.996z"/>
	</g>
</g>
</svg>
