<?xml version="1.0" encoding="utf-8"?>
<!-- Generator: Adobe Illustrator 16.0.0, SVG Export Plug-In . SVG Version: 6.00 Build 0)  -->
<!DOCTYPE svg PUBLIC "-//W3C//DTD SVG 1.1//EN" "http://www.w3.org/Graphics/SVG/1.1/DTD/svg11.dtd">
<svg version="1.1" id="Layer_1" xmlns="http://www.w3.org/2000/svg" xmlns:xlink="http://www.w3.org/1999/xlink" x="0px" y="0px"
	 width="31.261px" height="21.307px" viewBox="0 0 31.261 21.307" enable-background="new 0 0 31.261 21.307" xml:space="preserve">
<g>
	<path fill="#EAEAEA" d="M11.763,19.149c-2.416,0-4.664-0.708-6.558-1.922c0.335,0.04,0.675,0.06,1.021,0.06
		c2.004,0,3.849-0.684,5.312-1.831c-1.872-0.035-3.451-1.271-3.996-2.971c0.261,0.05,0.529,0.077,0.805,0.077
		c0.391,0,0.769-0.052,1.127-0.15c-1.956-0.393-3.432-2.122-3.432-4.194c0-0.019,0.001-0.036,0.001-0.054
		c0.576,0.32,1.236,0.513,1.938,0.535c-1.147-0.767-1.902-2.077-1.902-3.56c0-0.785,0.211-1.519,0.578-2.151
		c2.11,2.588,5.263,4.291,8.817,4.469c-0.073-0.313-0.11-0.639-0.11-0.975c0-2.362,1.915-4.278,4.277-4.278
		c1.23,0,2.342,0.52,3.123,1.351c0.974-0.192,1.89-0.548,2.716-1.038c-0.319,0.999-0.997,1.837-1.881,2.367
		c0.866-0.104,1.689-0.333,2.457-0.674c-0.573,0.858-1.299,1.611-2.135,2.215c0.009,0.183,0.013,0.367,0.013,0.553
		C23.934,12.63,19.631,19.149,11.763,19.149"/>
</g>
</svg>
