<?xml version="1.0" encoding="utf-8"?>
<!-- Generator: Adobe Illustrator 16.0.0, SVG Export Plug-In . SVG Version: 6.00 Build 0)  -->
<!DOCTYPE svg PUBLIC "-//W3C//DTD SVG 1.1//EN" "http://www.w3.org/Graphics/SVG/1.1/DTD/svg11.dtd">
<svg version="1.1" id="Layer_1" xmlns="http://www.w3.org/2000/svg" xmlns:xlink="http://www.w3.org/1999/xlink" x="0px" y="0px"
	 width="36.505px" height="21.307px" viewBox="0 0 36.505 21.307" enable-background="new 0 0 36.505 21.307" xml:space="preserve">
<path fill="#EAEAEA" d="M3.873,10.931c-0.061,0-0.11,0.048-0.118,0.115L3.54,12.681l0.215,1.606
	c0.007,0.067,0.057,0.114,0.118,0.114c0.06,0,0.108-0.046,0.118-0.113l0,0v-0.001c0,0,0,0,0,0.001l0.254-1.607l-0.254-1.635
	C3.981,10.979,3.933,10.931,3.873,10.931z M5.083,10.038c-0.01-0.07-0.06-0.119-0.122-0.119c-0.063,0-0.114,0.05-0.123,0.119
	c0,0.001-0.29,2.643-0.29,2.643l0.29,2.585c0.008,0.069,0.059,0.118,0.123,0.118c0.061,0,0.112-0.049,0.122-0.118l0.329-2.585
	L5.083,10.038z M9.642,7.601c-0.119,0-0.217,0.097-0.222,0.22l-0.23,4.862l0.23,3.143c0.005,0.122,0.104,0.22,0.222,0.22
	c0.118,0,0.216-0.098,0.223-0.221v0.001l0.26-3.143L9.865,7.82C9.858,7.697,9.76,7.601,9.642,7.601z M7.283,9.29
	c-0.092,0-0.166,0.073-0.173,0.171l-0.26,3.221l0.26,3.117c0.007,0.096,0.081,0.169,0.173,0.169c0.09,0,0.165-0.073,0.172-0.169
	l0.294-3.117L7.455,9.459C7.447,9.363,7.373,9.29,7.283,9.29z M12.039,16.045c0.147,0,0.268-0.119,0.273-0.271l0.226-3.089
	l-0.225-6.474C12.307,6.06,12.187,5.94,12.04,5.94c-0.148,0-0.269,0.119-0.273,0.271l-0.201,6.472l0.201,3.092
	C11.771,15.926,11.891,16.045,12.039,16.045z M16.947,16.06c0.203,0,0.37-0.167,0.374-0.372v0.002v-0.002l0.157-3.001l-0.157-7.476
	c-0.004-0.205-0.171-0.372-0.374-0.372c-0.203,0-0.371,0.166-0.373,0.372l-0.141,7.473c0,0.006,0.141,3.006,0.141,3.006
	C16.577,15.893,16.745,16.06,16.947,16.06z M14.475,16.047c0.176,0,0.318-0.142,0.323-0.321v0.001l0.192-3.042l-0.192-6.52
	c-0.004-0.18-0.146-0.321-0.323-0.321s-0.319,0.142-0.324,0.321l-0.17,6.52l0.17,3.042C14.155,15.905,14.297,16.047,14.475,16.047z
	 M8.458,16.019c0.104,0,0.189-0.084,0.197-0.194l0.278-3.143l-0.278-2.99c-0.007-0.11-0.093-0.193-0.197-0.193
	c-0.106,0-0.191,0.085-0.198,0.195l-0.245,2.988l0.245,3.142C8.267,15.935,8.351,16.019,8.458,16.019z M6.117,15.847
	c0.077,0,0.139-0.061,0.147-0.144l0.312-3.022L6.264,9.545C6.255,9.462,6.193,9.401,6.117,9.401c-0.077,0-0.139,0.061-0.147,0.144
	c0,0.001-0.275,3.136-0.275,3.136l0.275,3.021C5.978,15.786,6.04,15.847,6.117,15.847z M15.706,6.057
	c-0.191,0-0.345,0.151-0.349,0.348l-0.156,6.281l0.156,3.022c0.004,0.193,0.157,0.346,0.349,0.346c0.191,0,0.344-0.152,0.348-0.347
	v0.002l0.175-3.023l-0.175-6.282C16.05,6.208,15.897,6.057,15.706,6.057z M10.836,16.051c0.132,0,0.241-0.108,0.248-0.245
	l0.244-3.122L11.083,6.71c-0.006-0.139-0.115-0.246-0.248-0.246c-0.134,0-0.242,0.108-0.249,0.246l-0.215,5.974l0.215,3.123
	C10.594,15.942,10.702,16.051,10.836,16.051z M13.55,15.756L13.55,15.756l0.208-3.071l-0.208-6.69
	c-0.005-0.167-0.137-0.297-0.298-0.297c-0.164,0-0.294,0.13-0.298,0.297l-0.186,6.69l0.186,3.071
	c0.004,0.164,0.136,0.294,0.298,0.294C13.414,16.05,13.544,15.92,13.55,15.756L13.55,15.756z M29.347,8.828
	c-0.496,0-0.969,0.101-1.4,0.281c-0.289-3.263-3.024-5.821-6.361-5.821c-0.816,0-1.612,0.161-2.315,0.433
	c-0.273,0.105-0.346,0.215-0.348,0.426v11.486c0.002,0.222,0.174,0.406,0.39,0.429c0.01,0.001,9.969,0.006,10.033,0.006
	c1.999,0,3.619-1.62,3.619-3.62C32.965,10.449,31.345,8.828,29.347,8.828z M18.183,4.136c-0.217,0-0.396,0.179-0.399,0.398
	l-0.164,8.153l0.164,2.959c0.003,0.217,0.182,0.395,0.399,0.395c0.216,0,0.396-0.178,0.398-0.397v0.004l0.178-2.96l-0.178-8.154
	C18.579,4.314,18.399,4.136,18.183,4.136z"/>
</svg>
