<?xml version="1.0" encoding="utf-8"?>
<!-- Generator: Adobe Illustrator 16.0.0, SVG Export Plug-In . SVG Version: 6.00 Build 0)  -->
<!DOCTYPE svg PUBLIC "-//W3C//DTD SVG 1.1//EN" "http://www.w3.org/Graphics/SVG/1.1/DTD/svg11.dtd">
<svg version="1.1" id="Layer_1" xmlns="http://www.w3.org/2000/svg" xmlns:xlink="http://www.w3.org/1999/xlink" x="0px" y="0px"
	 width="227.244px" height="55.84px" viewBox="0 0 227.244 55.84" enable-background="new 0 0 227.244 55.84" xml:space="preserve">
<g>
	<g>
		<g>
			<defs>
				<path id="SVGID_1_" d="M0,0v55.84h41.88V0H0z M21.08,40.951c-5.892,0-10.667-4.773-10.667-10.668
					c0-5.892,4.775-10.667,10.667-10.667c5.891,0,10.668,4.775,10.668,10.667C31.748,36.178,26.971,40.951,21.08,40.951z"/>
			</defs>
			<clipPath id="SVGID_2_">
				<use xlink:href="#SVGID_1_"  overflow="visible"/>
			</clipPath>
			<g clip-path="url(#SVGID_2_)">
				<g>
					<g>
						<g>
							<rect x="17.117" y="22.133" fill="#DCE0DF" width="3.438" height="1.223"/>
							<rect x="17.117" y="20.628" fill="#DCE0DF" width="3.438" height="1.222"/>
							<rect x="17.117" y="17.614" fill="#DCE0DF" width="3.438" height="1.223"/>
							<rect x="17.117" y="19.121" fill="#DCE0DF" width="3.438" height="1.222"/>
							<rect x="17.117" y="16.108" fill="#DCE0DF" width="3.438" height="1.223"/>
							<rect x="17.117" y="14.602" fill="#606261" width="3.438" height="1.223"/>
							<rect x="17.117" y="11.589" fill="#606261" width="3.438" height="1.224"/>
							<rect x="17.117" y="13.096" fill="#606261" width="3.438" height="1.223"/>
						</g>
						<g>
							<rect x="21.368" y="22.133" fill="#DCE0DF" width="3.44" height="1.223"/>
							<rect x="21.368" y="20.628" fill="#DCE0DF" width="3.44" height="1.222"/>
							<rect x="21.368" y="17.614" fill="#DCE0DF" width="3.44" height="1.223"/>
							<rect x="21.368" y="19.121" fill="#DCE0DF" width="3.44" height="1.222"/>
							<rect x="21.368" y="16.108" fill="#DCE0DF" width="3.44" height="1.223"/>
							<rect x="21.368" y="14.602" fill="#606261" width="3.44" height="1.223"/>
						</g>
						<g>
							<rect x="25.624" y="22.133" fill="#DCE0DF" width="3.438" height="1.223"/>
							<rect x="25.624" y="20.628" fill="#DCE0DF" width="3.438" height="1.222"/>
							<rect x="25.624" y="19.121" fill="#DCE0DF" width="3.438" height="1.222"/>
						</g>
						<g>
							<rect x="12.864" y="22.133" fill="#DCE0DF" width="3.438" height="1.223"/>
							<rect x="12.864" y="20.628" fill="#DCE0DF" width="3.438" height="1.222"/>
							<rect x="12.864" y="17.614" fill="#DCE0DF" width="3.438" height="1.223"/>
							<rect x="12.864" y="19.121" fill="#DCE0DF" width="3.438" height="1.222"/>
						</g>
					</g>
					<g>
						<g>
							
								<rect x="14.021" y="34.953" transform="matrix(-0.5002 -0.8659 0.8659 -0.5002 -7.18 66.9858)" fill="#DCE0DF" width="3.44" height="1.224"/>
							
								<rect x="12.719" y="35.708" transform="matrix(-0.4999 -0.8661 0.8661 -0.4999 -9.7994 66.9795)" fill="#DCE0DF" width="3.438" height="1.221"/>
							
								<rect x="10.109" y="37.214" transform="matrix(-0.4996 -0.8663 0.8663 -0.4996 -15.0276 66.9675)" fill="#DCE0DF" width="3.438" height="1.221"/>
							
								<rect x="11.413" y="36.46" transform="matrix(-0.4998 -0.8661 0.8661 -0.4998 -12.4118 66.9738)" fill="#DCE0DF" width="3.439" height="1.222"/>
							
								<rect x="8.806" y="37.966" transform="matrix(-0.4998 -0.8661 0.8661 -0.4998 -17.6287 66.9752)" fill="#DCE0DF" width="3.437" height="1.223"/>
							
								<rect x="7.498" y="38.718" transform="matrix(-0.5002 -0.8659 0.8659 -0.5002 -20.2261 66.9862)" fill="#606261" width="3.44" height="1.223"/>
							
								<rect x="4.89" y="40.225" transform="matrix(-0.4998 -0.8662 0.8662 -0.4998 -25.4572 66.9716)" fill="#606261" width="3.441" height="1.223"/>
							
								<rect x="6.195" y="39.473" transform="matrix(-0.5001 -0.8659 0.8659 -0.5001 -22.838 66.9859)" fill="#606261" width="3.438" height="1.222"/>
						</g>
						<g>
							
								<rect x="11.896" y="31.27" transform="matrix(-0.5001 -0.8659 0.8659 -0.5001 -7.1831 59.6173)" fill="#DCE0DF" width="3.438" height="1.223"/>
							
								<rect x="10.591" y="32.024" transform="matrix(-0.5001 -0.8659 0.8659 -0.5001 -9.7928 59.6177)" fill="#DCE0DF" width="3.438" height="1.222"/>
							
								<rect x="7.982" y="33.531" transform="matrix(-0.5004 -0.8658 0.8658 -0.5004 -15.0053 59.6239)" fill="#DCE0DF" width="3.439" height="1.222"/>
							
								<rect x="9.287" y="32.777" transform="matrix(-0.5003 -0.8659 0.8659 -0.5003 -12.3987 59.6215)" fill="#DCE0DF" width="3.438" height="1.224"/>
							
								<rect x="6.677" y="34.283" transform="matrix(-0.5 -0.866 0.866 -0.5 -17.6236 59.6143)" fill="#DCE0DF" width="3.439" height="1.222"/>
							
								<rect x="5.373" y="35.037" transform="matrix(-0.5003 -0.8659 0.8659 -0.5003 -20.2267 59.6231)" fill="#606261" width="3.438" height="1.223"/>
						</g>
						<g>
							
								<rect x="9.77" y="27.588" transform="matrix(-0.5001 -0.866 0.866 -0.5001 -7.1867 52.2495)" fill="#DCE0DF" width="3.437" height="1.222"/>
							
								<rect x="8.466" y="28.34" transform="matrix(-0.4999 -0.8661 0.8661 -0.4999 -9.798 52.2459)" fill="#DCE0DF" width="3.438" height="1.222"/>
							
								<rect x="7.161" y="29.094" transform="matrix(-0.5001 -0.8659 0.8659 -0.5001 -12.401 52.2498)" fill="#DCE0DF" width="3.438" height="1.221"/>
						</g>
						<g>
							
								<rect x="16.148" y="38.637" transform="matrix(-0.5 -0.866 0.866 -0.5 -7.1869 74.3469)" fill="#DCE0DF" width="3.439" height="1.222"/>
							
								<rect x="14.845" y="39.39" transform="matrix(-0.5001 -0.866 0.866 -0.5001 -9.7939 74.3478)" fill="#DCE0DF" width="3.437" height="1.222"/>
							
								<rect x="12.235" y="40.896" transform="matrix(-0.4998 -0.8661 0.8661 -0.4998 -15.0227 74.3391)" fill="#DCE0DF" width="3.439" height="1.222"/>
							
								<rect x="13.54" y="40.144" transform="matrix(-0.5001 -0.866 0.866 -0.5001 -12.4046 74.3484)" fill="#DCE0DF" width="3.437" height="1.222"/>
						</g>
					</g>
					<g>
						<g>
							
								<rect x="24.42" y="34.954" transform="matrix(0.5 -0.866 0.866 0.5 -17.7304 40.4192)" fill="#DCE0DF" width="3.439" height="1.223"/>
							
								<rect x="25.724" y="35.708" transform="matrix(0.4997 -0.8662 0.8662 0.4997 -17.7298 41.9406)" fill="#DCE0DF" width="3.438" height="1.222"/>
							
								<rect x="28.333" y="37.213" transform="matrix(0.4998 -0.8661 0.8661 0.4998 -17.729 44.9489)" fill="#DCE0DF" width="3.439" height="1.223"/>
							
								<rect x="27.029" y="36.46" transform="matrix(0.4998 -0.8661 0.8661 0.4998 -17.7288 43.4424)" fill="#DCE0DF" width="3.439" height="1.222"/>
							
								<rect x="29.638" y="37.966" transform="matrix(0.5003 -0.8659 0.8659 0.5003 -17.7334 46.4294)" fill="#DCE0DF" width="3.438" height="1.224"/>
							
								<rect x="30.942" y="38.719" transform="matrix(0.5 -0.866 0.866 0.5 -17.7302 47.9498)" fill="#606261" width="3.439" height="1.222"/>
							
								<rect x="33.549" y="40.225" transform="matrix(0.4998 -0.8662 0.8662 0.4998 -17.7284 50.9767)" fill="#606261" width="3.441" height="1.223"/>
							
								<rect x="32.247" y="39.473" transform="matrix(0.5001 -0.8659 0.8659 0.5001 -17.7328 49.4491)" fill="#606261" width="3.438" height="1.223"/>
						</g>
						<g>
							
								<rect x="26.546" y="31.27" transform="matrix(0.5006 -0.8657 0.8657 0.5006 -13.4832 40.3924)" fill="#DCE0DF" width="3.439" height="1.223"/>
							
								<rect x="27.851" y="32.024" transform="matrix(0.5001 -0.8659 0.8659 0.5001 -13.4796 41.9189)" fill="#DCE0DF" width="3.438" height="1.222"/>
							
								<rect x="30.46" y="33.531" transform="matrix(0.4999 -0.8661 0.8661 0.4999 -13.4772 44.9422)" fill="#DCE0DF" width="3.438" height="1.22"/>
							
								<rect x="29.155" y="32.777" transform="matrix(0.5003 -0.8659 0.8659 0.5003 -13.4815 43.4185)" fill="#DCE0DF" width="3.438" height="1.224"/>
							
								<rect x="31.764" y="34.283" transform="matrix(0.5 -0.866 0.866 0.5 -13.4781 46.4438)" fill="#DCE0DF" width="3.439" height="1.223"/>
							
								<rect x="33.069" y="35.037" transform="matrix(0.5003 -0.8659 0.8659 0.5003 -13.4824 47.9365)" fill="#606261" width="3.438" height="1.223"/>
						</g>
						<g>
							
								<rect x="28.673" y="27.588" transform="matrix(0.5003 -0.8659 0.8659 0.5003 -9.2292 40.4075)" fill="#DCE0DF" width="3.438" height="1.223"/>
							
								<rect x="29.977" y="28.341" transform="matrix(0.4995 -0.8663 0.8663 0.4995 -9.2177 41.9483)" fill="#DCE0DF" width="3.437" height="1.221"/>
							
								<rect x="31.281" y="29.094" transform="matrix(0.4999 -0.8661 0.8661 0.4999 -9.2234 43.4344)" fill="#DCE0DF" width="3.438" height="1.22"/>
						</g>
						<g>
							
								<rect x="22.293" y="38.637" transform="matrix(0.5 -0.866 0.866 0.5 -21.9837 40.4183)" fill="#DCE0DF" width="3.439" height="1.222"/>
							
								<rect x="23.598" y="39.39" transform="matrix(0.5001 -0.866 0.866 0.5001 -21.9835 41.9228)" fill="#DCE0DF" width="3.437" height="1.222"/>
							
								<rect x="26.206" y="40.896" transform="matrix(0.4998 -0.8661 0.8661 0.4998 -21.9827 44.9494)" fill="#DCE0DF" width="3.439" height="1.222"/>
							
								<rect x="24.902" y="40.144" transform="matrix(0.5001 -0.866 0.866 0.5001 -21.9846 43.4287)" fill="#DCE0DF" width="3.437" height="1.222"/>
						</g>
					</g>
					<line x1="22.536" y1="40.836" x2="19.625" y2="40.836"/>
				</g>
			</g>
		</g>
	</g>
	<text transform="matrix(1 0 0 1 53.5176 33.4199)" fill="#FFFFFF" font-family="'EurostileRegular'" font-size="18.8529">SILENT DISCO SQUAD</text>
</g>
</svg>
